<svg xmlns="http://www.w3.org/2000/svg" xmlns:xlink="http://www.w3.org/1999/xlink" width="64" height="64" viewBox="0 0 64 64">
    <defs>
        <filter x="-50%" y="-50%" width="200%" height="200%" filterUnits="objectBoundingBox" id="a">
            <feOffset dy="1" in="SourceAlpha" result="shadowOffsetOuter1"/>
            <feGaussianBlur stdDeviation=".5" in="shadowOffsetOuter1" result="shadowBlurOuter1"/>
            <feColorMatrix values="0 0 0 0 0 0 0 0 0 0 0 0 0 0 0 0 0 0 0.4 0" in="shadowBlurOuter1" result="shadowMatrixOuter1"/>
            <feMerge>
                <feMergeNode in="shadowMatrixOuter1"/>
                <feMergeNode in="SourceGraphic"/>
            </feMerge>
        </filter>
        <linearGradient x1="50%" y1="0%" x2="50%" y2="100%" id="primary">
            <stop stop-color="#000" offset="0%"/>
            <stop stop-color="#000" offset="100%"/>
        </linearGradient>
        <path d="M12.149 33.298C5.124 31.21 0 24.703 0 17 0 7.611 7.611 0 17 0s17 7.611 17 17c0 7.703-5.124 14.21-12.149 16.298l-3.957 7.914c-.493.987-1.294.988-1.788 0l-3.957-7.914z" id="c"/>
        <filter x="-50%" y="-50%" width="200%" height="200%" filterUnits="objectBoundingBox" id="d">
            <feOffset dy="1" in="SourceAlpha" result="shadowOffsetInner1"/>
            <feComposite in="shadowOffsetInner1" in2="SourceAlpha" operator="arithmetic" k2="-1" k3="1" result="shadowInnerInner1"/>
            <feColorMatrix values="0 0 0 0 1 0 0 0 0 1 0 0 0 0 1 0 0 0 0.2 0" in="shadowInnerInner1"/>
        </filter>
        <linearGradient x1="50%" y1="0%" x2="50%" y2="100%" id="secondary">
            <stop stop-color="#fff" offset="0%"/>
            <stop stop-color="#fff" offset="100%"/>
        </linearGradient>
        <circle id="f" cx="17" cy="17" r="6"/>
        <filter x="-50%" y="-50%" width="200%" height="200%" filterUnits="objectBoundingBox" id="g">
            <feOffset dy="1" in="SourceAlpha" result="shadowOffsetInner1"/>
            <feComposite in="shadowOffsetInner1" in2="SourceAlpha" operator="arithmetic" k2="-1" k3="1" result="shadowInnerInner1"/>
            <feColorMatrix values="0 0 0 0 0 0 0 0 0 0 0 0 0 0 0 0 0 0 0.198256341 0" in="shadowInnerInner1"/>
        </filter>
    </defs>
    <g fill="none" fill-rule="evenodd">
        <path d="M7 7h50v50H7z"/>
        <g filter="url(#a)" transform="translate(15 11)">
            <use fill="url(#primary)" xlink:href="#c"/>
            <use filter="url(#d)" xlink:href="#c"/>
            <path d="M29.02 4.98c-6.638-6.64-17.402-6.64-24.04 0-6.64 6.638-6.64 17.402 0 24.04C26 8 7.5 27 29.02 4.98z" fill="#FFF" style="mix-blend-mode:soft-light" opacity=".2"/>
            <g>
                <use fill="url(#secondary)" xlink:href="#f"/>
                <use filter="url(#g)" xlink:href="#f"/>
            </g>
        </g>
    </g>
</svg>