<svg xmlns="http://www.w3.org/2000/svg" width="50" height="50" viewBox="0 0 56 67" fill="none">
    <path d="M51.4718 21.5155C53.1488 28.4099 39.4037 53.5651 34 63.9999C34 63.9999 33.9999 27.4999 34.3289 27.4999C39.1916 27.4999 51.4718 21.5155 51.4718 21.5155Z" fill="url(#paint0_linear_138_3802)"/>
    <g filter="url(#filter0_d_138_3802)">
        <path d="M17 21.3292C17 17.9018 18.0163 14.5514 19.9205 11.7016C21.8247 8.85184 24.5311 6.63071 27.6976 5.31911C30.8641 4.0075 34.3484 3.66432 37.71 4.33298C41.0715 5.00163 44.1593 6.65207 46.5828 9.07561C49.0063 11.4991 50.6568 14.5869 51.3254 17.9484C51.9941 21.31 51.6509 24.7943 50.3393 27.9608C49.0277 31.1273 46.8065 33.8337 43.9568 35.7379C41.107 37.642 37.7566 38.6584 34.3292 38.6584L34.3292 27.4198C35.5338 27.4198 36.7113 27.0625 37.7129 26.3933C38.7145 25.7241 39.4952 24.7729 39.9561 23.66C40.4171 22.547 40.5377 21.3224 40.3027 20.141C40.0677 18.9595 39.4877 17.8743 38.6359 17.0225C37.7841 16.1707 36.6989 15.5907 35.5174 15.3557C34.336 15.1207 33.1113 15.2413 31.9984 15.7022C30.8855 16.1632 29.9343 16.9439 29.2651 17.9455C28.5958 18.947 28.2386 20.1246 28.2386 21.3292L17 21.3292Z" fill="#E52D2B"/>
    </g>
    <path d="M34.3285 36.4225C37.3137 36.4225 40.2318 35.5373 42.7138 33.8789C45.1959 32.2204 47.1304 29.8632 48.2728 27.1053C49.4152 24.3474 49.714 21.3126 49.1317 18.3848C48.5493 15.4571 47.1118 12.7677 45.001 10.6569C42.8902 8.54608 40.2008 7.10859 37.2731 6.52622C34.3453 5.94384 31.3105 6.24274 28.5526 7.3851C25.7947 8.52747 23.4375 10.462 21.779 12.9441C20.1206 15.4261 19.2354 18.3442 19.2354 21.3294H20.9593C20.9593 18.6852 21.7434 16.1004 23.2124 13.9018C24.6815 11.7033 26.7694 9.98972 29.2123 8.97784C31.6552 7.96595 34.3434 7.7012 36.9367 8.21705C39.5301 8.73291 41.9123 10.0062 43.782 11.8759C45.6517 13.7456 46.925 16.1278 47.4408 18.7212C47.9567 21.3145 47.6919 24.0026 46.6801 26.4455C45.6682 28.8885 43.9546 30.9764 41.7561 32.4455C39.5575 33.9145 36.9727 34.6986 34.3285 34.6986V36.4225Z" fill="#FEDB08"/>
    <path d="M34.3286 33.7978C36.7946 33.7978 39.2052 33.0666 41.2556 31.6965C43.306 30.3265 44.9041 28.3792 45.8478 26.1009C46.7915 23.8227 47.0384 21.3157 46.5573 18.8971C46.0762 16.4785 44.8887 14.2569 43.145 12.5131C41.4013 10.7694 39.1797 9.58193 36.7611 9.10084C34.3425 8.61975 31.8355 8.86666 29.5572 9.81036C27.2789 10.7541 25.3317 12.3521 23.9616 14.4025C22.5916 16.4529 21.8604 18.8635 21.8604 21.3295H23.5169C23.5169 19.1912 24.151 17.1008 25.339 15.3228C26.527 13.5449 28.2156 12.1591 30.1911 11.3408C32.1667 10.5225 34.3406 10.3084 36.4379 10.7255C38.5352 11.1427 40.4616 12.1724 41.9737 13.6845C43.4857 15.1965 44.5155 17.123 44.9326 19.2203C45.3498 21.3175 45.1357 23.4914 44.3174 25.467C43.4991 27.4426 42.1133 29.1312 40.3353 30.3192C38.5573 31.5072 36.467 32.1413 34.3286 32.1413L34.3286 33.7978Z" fill="white"/>
    <path d="M34.3287 31.1723C36.2756 31.1723 38.1787 30.595 39.7974 29.5134C41.4161 28.4318 42.6778 26.8945 43.4228 25.0959C44.1678 23.2972 44.3628 21.318 43.983 19.4086C43.6031 17.4992 42.6657 15.7453 41.289 14.3687C39.9124 12.992 38.1585 12.0545 36.2491 11.6747C34.3396 11.2949 32.3605 11.4899 30.5618 12.2349C28.7632 12.9799 27.2259 14.2415 26.1443 15.8603C25.0627 17.479 24.4854 19.3821 24.4854 21.329L26.0747 21.329C26.0747 19.6965 26.5588 18.1006 27.4658 16.7433C28.3727 15.3859 29.6618 14.328 31.1701 13.7033C32.6783 13.0785 34.3379 12.9151 35.939 13.2336C37.5401 13.552 39.0108 14.3382 40.1652 15.4925C41.3195 16.6468 42.1056 18.1176 42.4241 19.7187C42.7426 21.3198 42.5792 22.9794 41.9544 24.4876C41.3297 25.9959 40.2718 27.285 38.9144 28.1919C37.557 29.0989 35.9612 29.583 34.3287 29.583V31.1723Z" fill="#FEDB08"/>
    <mask id="mask0_138_3802" style="mask-type:alpha" maskUnits="userSpaceOnUse" x="0" y="11" width="45" height="25">
        <g clip-path="url(#clip0_138_3802)">
            <path d="M-2.46777 22.3565H32.7767H33.5599V36.4543H-2.07617L-2.46777 22.3565Z" fill="#D9D9D9"/>
        </g>
    </mask>
    <g mask="url(#mask0_138_3802)">
        <path d="M2.77407 23.9543C2.43787 23.9543 2.17454 24.0869 1.98353 24.3516C1.79252 24.6162 1.69701 24.9828 1.69701 25.4519C1.69701 25.9358 1.79141 26.3117 1.97966 26.5791C2.16791 26.8465 2.43566 26.9802 2.78235 26.9802C3.12352 26.9802 3.38353 26.8465 3.56185 26.5791C3.74016 26.3112 3.82904 25.9204 3.82904 25.4059C3.82904 24.9521 3.73629 24.5971 3.55025 24.34C3.36421 24.083 3.10585 23.9543 2.77462 23.9543H2.77407ZM2.79725 22.6166C3.61208 22.6166 4.26958 22.8802 4.76863 23.4079C5.26769 23.9351 5.51722 24.6266 5.51722 25.4826C5.51722 26.3336 5.26603 27.0213 4.76422 27.5458C4.2624 28.0707 3.60159 28.3332 2.78124 28.3332C1.94599 28.3332 1.27303 28.0718 0.764041 27.5496C0.254496 27.0274 0 26.3358 0 25.4744C0 24.6135 0.254496 23.9219 0.764041 23.3997C1.27359 22.8775 1.95096 22.6161 2.7967 22.6161L2.79725 22.6166Z" fill="#E52D2B"/>
        <path d="M9.73431 26.5781C9.59078 26.7919 9.35726 27.0412 8.88747 27.0176C8.58218 27.0023 8.32713 26.8773 8.14275 26.5973C7.95174 26.3107 7.85623 25.9414 7.85623 25.4827C7.85623 25.0049 7.95174 24.6295 8.14275 24.3615C8.23825 24.2213 8.35915 24.1193 8.49937 24.0558C8.56286 24.024 8.6269 23.9988 8.69701 23.9856C8.77319 23.9664 8.84993 23.9599 8.93881 23.9599C9.11049 23.9599 9.26341 23.9917 9.39701 24.0552C9.52453 24.1254 9.63274 24.2147 9.72824 24.3418V24.3478C9.77903 24.4114 9.81767 24.4816 9.84914 24.5643C9.91263 24.7106 9.96397 24.8893 9.98274 25.0865C9.99544 25.1819 10.0617 26.0888 9.73431 26.577V26.5781ZM11.0653 27.3996L11.0145 27.342C11.2182 27.1448 11.3772 26.8768 11.4987 26.5398C11.6135 26.1956 11.6709 25.8263 11.6709 25.4318C11.6709 24.6164 11.4164 23.9478 10.9069 23.413C10.5309 23.0179 10.0727 22.7696 9.55048 22.6677C9.36554 22.6359 9.17508 22.6168 8.97745 22.6168C8.77374 22.6168 8.57611 22.6359 8.39172 22.6677C7.83139 22.7696 7.35993 23.0179 6.96522 23.4256C6.5705 23.8333 6.3287 24.3172 6.22657 24.8903C6.19455 25.0816 6.17578 25.2789 6.17578 25.4887C6.17578 25.5972 6.18241 25.6992 6.18848 25.8011C6.23927 26.508 6.48769 27.0878 6.9205 27.5464C7.41072 28.0687 8.06049 28.3361 8.86262 28.3361H8.90734C9.42296 28.3301 9.84969 28.215 10.1809 28.0051L10.8975 28.7175L11.6361 27.9662L11.0664 27.4001L11.0653 27.3996Z" fill="#E52D2B"/>
        <path d="M16.9768 22.762V24.1605H15.4487V28.2035H13.7826V24.1605H12.2617V22.762H16.9768Z" fill="#E52D2B"/>
        <path d="M22.2293 22.762V24.0843H19.3636V24.7644H21.9616V26.0253H19.3636V26.8204H22.3055V28.2035H17.7207V22.762H22.2293Z" fill="#E52D2B"/>
        <path d="M24.8443 24.0997V25.2537H25.647C26.1052 25.2537 26.3349 25.0625 26.3349 24.6805C26.3349 24.2936 26.0953 24.1002 25.6167 24.1002H24.8449L24.8443 24.0997ZM23.1865 22.762H25.5554C27.1398 22.762 27.932 23.407 27.932 24.6959C27.932 25.297 27.7448 25.7518 27.3705 26.0598C26.9962 26.3683 26.5005 26.5223 25.8844 26.5223H24.8449V28.2035H23.1871V22.762H23.1865Z" fill="#E52D2B"/>
        <path d="M30.8433 26.2626L30.5529 25.3299C30.4866 25.1107 30.4182 24.8356 30.347 24.5046C30.2653 24.8307 30.1885 25.1085 30.1173 25.3376C30.0406 25.5874 29.9418 25.8954 29.8192 26.2626H30.8433ZM31.164 22.762L33.1663 28.2035H31.4776L31.2104 27.432H29.4604L29.1926 28.2035H27.5039L29.5139 22.762H31.164Z" fill="#E52D2B"/>
        <path d="M8.30163 33.7876L8.00849 32.8522C7.94169 32.6325 7.87213 32.3563 7.80036 32.0242C7.71756 32.3513 7.64082 32.6303 7.5685 32.8599C7.49121 33.1103 7.39129 33.4194 7.26763 33.7876H8.30163ZM8.62568 30.2767L10.6473 35.7352H8.94201L8.67206 34.9608H6.90493L6.63498 35.7352H4.92969L6.95903 30.2767H8.62568Z" fill="#E52D2B"/>
        <path d="M16.1283 30.276L14.4385 35.7345H12.5399L10.8965 30.276H12.6018L12.8795 31.2498C13.209 32.3994 13.4172 33.3376 13.5044 34.0631C13.6021 33.3732 13.813 32.4378 14.137 31.2574L14.407 30.276H16.1277H16.1283Z" fill="#E52D2B"/>
        <path d="M19.7494 33.7876L19.4563 32.8522C19.3895 32.6325 19.3199 32.3563 19.2482 32.0242C19.1654 32.3513 19.0881 32.6303 19.0163 32.8599C18.939 33.1103 18.8386 33.4194 18.7155 33.7876H19.7494ZM20.0735 30.2767L22.0951 35.7352H20.3898L20.1199 34.9608H18.3528L18.0828 35.7352H16.377L18.4063 30.2767H20.0729H20.0735Z" fill="#E52D2B"/>
        <path d="M27.1828 31.9317H25.6012C25.5962 31.7684 25.5316 31.6402 25.4085 31.5487C25.2848 31.4566 25.1154 31.4106 24.899 31.4106C24.5285 31.4106 24.343 31.5235 24.343 31.7482C24.343 31.8095 24.374 31.8687 24.4358 31.9246C24.4976 31.9811 24.5837 32.0282 24.6947 32.0665C24.8051 32.1049 24.9067 32.1372 24.9994 32.1624C25.0922 32.1882 25.1965 32.2118 25.3119 32.2353C25.4273 32.2583 25.4957 32.2726 25.5162 32.2775C25.732 32.334 25.9175 32.3877 26.0715 32.4386C26.2261 32.4896 26.3928 32.563 26.5733 32.6573C26.7533 32.7521 26.8985 32.8567 27.0095 32.9713C27.1204 33.0863 27.2143 33.2321 27.291 33.408C27.3683 33.5845 27.4069 33.7828 27.4069 34.002C27.4069 34.5692 27.1911 35.0207 26.7588 35.355C26.3266 35.6898 25.7425 35.8575 25.0072 35.8575C24.2404 35.8575 23.6359 35.6827 23.1937 35.3325C22.7509 34.9824 22.5251 34.5034 22.5146 33.8952H24.2045C24.2299 34.3653 24.5153 34.6004 25.0607 34.6004C25.2716 34.6004 25.4389 34.5599 25.562 34.4777C25.6856 34.396 25.7475 34.2859 25.7475 34.1478C25.7475 34.0607 25.711 33.9867 25.6393 33.9253C25.5725 33.8689 25.4438 33.8075 25.2534 33.7412C25.0629 33.6749 24.8382 33.6047 24.5782 33.5302C24.3182 33.4562 24.1548 33.4064 24.088 33.3806C23.8672 33.3039 23.6844 33.2299 23.5404 33.1581C23.3963 33.0863 23.2572 32.9932 23.1236 32.8781C22.99 32.7636 22.8906 32.6227 22.8266 32.4567C22.762 32.2907 22.7305 32.095 22.7305 31.8704C22.7305 31.3596 22.9348 30.9465 23.3438 30.6325C23.7524 30.3179 24.2889 30.1606 24.9525 30.1606C25.652 30.1606 26.1963 30.3152 26.5844 30.6248C26.973 30.9344 27.1718 31.3695 27.1823 31.9317H27.1828Z" fill="#E52D2B"/>
        <path d="M4.12923 34.3169V35.7427H0.000976562V30.2842H1.69081V34.3169H4.12923Z" fill="#E52D2B"/>
        <path d="M33.166 30.2845V35.743H31.4838V33.5889H29.8945V35.743H28.2041V30.2845H29.8945V32.117H31.4838V30.2845H33.166Z" fill="#E52D2B"/>
        <path fill-rule="evenodd" clip-rule="evenodd" d="M32.4813 11.0001C39.3952 11.0001 44.9997 16.5633 44.9997 23.4262C44.9997 29.7253 40.278 34.929 34.1557 35.7416V34.0884C39.3638 33.2889 43.3501 28.82 43.3501 23.4268C43.3501 17.468 38.4838 12.6375 32.4808 12.6375C27.043 12.6375 22.5383 16.6011 21.7378 21.7762H20.0723C20.8854 15.6936 26.1305 11.0007 32.4808 11.0007L32.4813 11.0001Z" fill="#FFCD00"/>
        <path fill-rule="evenodd" clip-rule="evenodd" d="M32.4811 13.7711C37.8481 13.7711 42.1988 18.0941 42.1988 23.4266C42.1988 28.1913 38.7248 32.1499 34.156 32.9385V31.2699C37.8128 30.5043 40.5576 27.2838 40.5576 23.426C40.5576 18.9988 36.9416 15.4095 32.4816 15.4095C28.5913 15.4095 25.3436 18.1401 24.5773 21.776H22.9062C23.6946 17.2299 27.6815 13.7711 32.4822 13.7711H32.4811Z" fill="#E52D2B"/>
        <path fill-rule="evenodd" clip-rule="evenodd" d="M32.4817 16.6138C36.2721 16.6138 39.3448 19.6639 39.3448 23.4263C39.3448 26.6156 37.1371 29.2919 34.1566 30.0345V28.3297C36.2147 27.637 37.6958 25.7037 37.6958 23.4269C37.6958 20.5686 35.3612 18.2511 32.4817 18.2511C30.1835 18.2511 28.2325 19.7274 27.5386 21.7763H25.8223C26.5653 18.8112 29.2654 16.6143 32.4822 16.6143L32.4817 16.6138Z" fill="#FFCD00"/>
    </g>
    <g filter="url(#filter1_f_138_3802)">
        <ellipse cx="34" cy="64" rx="4" ry="1" fill="#202020" fill-opacity="0.5"/>
    </g>
    <defs>
        <filter id="filter0_d_138_3802" x="13" y="0" width="42.6582" height="42.6584" filterUnits="userSpaceOnUse" color-interpolation-filters="sRGB">
            <feFlood flood-opacity="0" result="BackgroundImageFix"/>
            <feColorMatrix in="SourceAlpha" type="matrix" values="0 0 0 0 0 0 0 0 0 0 0 0 0 0 0 0 0 0 127 0" result="hardAlpha"/>
            <feOffset/>
            <feGaussianBlur stdDeviation="2"/>
            <feComposite in2="hardAlpha" operator="out"/>
            <feColorMatrix type="matrix" values="0 0 0 0 0 0 0 0 0 0 0 0 0 0 0 0 0 0 0.25 0"/>
            <feBlend mode="normal" in2="BackgroundImageFix" result="effect1_dropShadow_138_3802"/>
            <feBlend mode="normal" in="SourceGraphic" in2="effect1_dropShadow_138_3802" result="shape"/>
        </filter>
        <filter id="filter1_f_138_3802" x="28" y="61" width="12" height="6" filterUnits="userSpaceOnUse" color-interpolation-filters="sRGB">
            <feFlood flood-opacity="0" result="BackgroundImageFix"/>
            <feBlend mode="normal" in="SourceGraphic" in2="BackgroundImageFix" result="shape"/>
            <feGaussianBlur stdDeviation="1" result="effect1_foregroundBlur_138_3802"/>
        </filter>
        <linearGradient id="paint0_linear_138_3802" x1="42.8063" y1="21.5155" x2="40.5" y2="42.4999" gradientUnits="userSpaceOnUse">
            <stop/>
            <stop offset="1" stop-color="#D90000"/>
        </linearGradient>
        <clipPath id="clip0_138_3802">
            <rect width="45" height="24.8571" fill="white" transform="translate(0 11)"/>
        </clipPath>
    </defs>
</svg>