<svg xmlns="http://www.w3.org/2000/svg" width="22" height="22" viewBox="0 0 22 22" fill="none">
    <path fill-rule="evenodd" clip-rule="evenodd" d="M0.25 6C0.25 2.82436 2.82436 0.25 6 0.25H16C19.1756 0.25 21.75 2.82436 21.75 6V16C21.75 19.1756 19.1756 21.75 16 21.75H6C2.82436 21.75 0.25 19.1756 0.25 16V6ZM6.25 12.5C6.94036 12.5 7.5 11.9404 7.5 11.25C7.5 10.5596 6.94036 10 6.25 10C5.55964 10 5 10.5596 5 11.25C5 11.9404 5.55964 12.5 6.25 12.5ZM12.5 11.25C12.5 11.9404 11.9404 12.5 11.25 12.5C10.5596 12.5 10 11.9404 10 11.25C10 10.5596 10.5596 10 11.25 10C11.9404 10 12.5 10.5596 12.5 11.25ZM16.25 12.5C16.9404 12.5 17.5 11.9404 17.5 11.25C17.5 10.5596 16.9404 10 16.25 10C15.5596 10 15 10.5596 15 11.25C15 11.9404 15.5596 12.5 16.25 12.5ZM7.5 6.25C7.5 6.94036 6.94036 7.5 6.25 7.5C5.55964 7.5 5 6.94036 5 6.25C5 5.55964 5.55964 5 6.25 5C6.94036 5 7.5 5.55964 7.5 6.25ZM11.25 7.5C11.9404 7.5 12.5 6.94036 12.5 6.25C12.5 5.55964 11.9404 5 11.25 5C10.5596 5 10 5.55964 10 6.25C10 6.94036 10.5596 7.5 11.25 7.5ZM17.5 6.25C17.5 6.94036 16.9404 7.5 16.25 7.5C15.5596 7.5 15 6.94036 15 6.25C15 5.55964 15.5596 5 16.25 5C16.9404 5 17.5 5.55964 17.5 6.25ZM6.25 17.5C6.94036 17.5 7.5 16.9404 7.5 16.25C7.5 15.5596 6.94036 15 6.25 15C5.55964 15 5 15.5596 5 16.25C5 16.9404 5.55964 17.5 6.25 17.5ZM12.5 16.25C12.5 16.9404 11.9404 17.5 11.25 17.5C10.5596 17.5 10 16.9404 10 16.25C10 15.5596 10.5596 15 11.25 15C11.9404 15 12.5 15.5596 12.5 16.25ZM16.25 17.5C16.9404 17.5 17.5 16.9404 17.5 16.25C17.5 15.5596 16.9404 15 16.25 15C15.5596 15 15 15.5596 15 16.25C15 16.9404 15.5596 17.5 16.25 17.5Z" fill="#000"/>
</svg>