<svg width="20" height="20" viewBox="0 0 20 20" xmlns="http://www.w3.org/2000/svg">
    <path fill-rule="evenodd" clip-rule="evenodd" d="M8.58347 0.0995375C8.885 0.0567691 9.19086 0.0274501 9.50041 0.012207V5.49099C8.12135 5.44168 6.78898 5.18906 5.52819 4.75934C6.23226 3.03193 7.27486 1.4557 8.58347 0.0995375ZM5.18389 5.69858C6.55119 6.16702 7.99923 6.44157 9.50041 6.4916V9.49992H4.50921C4.55631 8.183 4.78881 6.90866 5.18389 5.69858ZM3.5086 9.49992C3.5567 8.05689 3.81227 6.66296 4.2481 5.34265C3.43485 5.00195 2.65426 4.59125 1.91265 4.11757C0.801704 5.64241 0.111499 7.49341 0.0126953 9.49992H3.5086ZM0.0126953 10.4999H3.5086C3.55671 11.9429 3.81227 13.3369 4.2481 14.6572C3.43485 14.9979 2.65425 15.4086 1.91264 15.8823C0.8017 14.3574 0.111499 12.5064 0.0126953 10.4999ZM4.50921 10.4999H9.50041V13.5082C7.99923 13.5583 6.55119 13.8328 5.18389 14.3013C4.78881 13.0912 4.55631 11.8168 4.50921 10.4999ZM10.5004 10.4999V13.5082C12.0015 13.5583 13.4495 13.8328 14.8167 14.3013C15.2118 13.0912 15.4443 11.8168 15.4914 10.4999H10.5004ZM16.492 10.4999C16.4439 11.943 16.1883 13.3369 15.7525 14.6572C16.5658 14.9979 17.3464 15.4086 18.0881 15.8824C19.1991 14.3575 19.8893 12.5065 19.9881 10.4999H16.492ZM19.9881 9.49992H16.492C16.4439 8.05689 16.1883 6.66296 15.7525 5.34265C16.5658 5.00192 17.3464 4.59119 18.0881 4.11746C19.1991 5.64231 19.8893 7.49336 19.9881 9.49992ZM15.4914 9.49992H10.5004V6.49159C12.0015 6.44154 13.4495 6.16699 14.8167 5.69858C15.2118 6.90866 15.4443 8.183 15.4914 9.49992ZM5.52819 15.2405C6.78898 14.8108 8.12135 14.5582 9.50041 14.5088V19.9876C9.19086 19.9724 8.88501 19.9431 8.58349 19.9003C7.27487 18.5441 6.23226 16.9679 5.52819 15.2405ZM10.5004 14.5088V19.9876C10.8099 19.9724 11.1156 19.9431 11.417 19.9004C12.7257 18.5442 13.7683 16.9679 14.4724 15.2405C13.2117 14.8108 11.8794 14.5582 10.5004 14.5088ZM10.5004 0.0122075V5.49098C11.8794 5.44165 13.2117 5.18903 14.4724 4.75934C13.7683 3.03191 12.7257 1.45567 11.4171 0.0994963C11.1156 0.0567513 10.8099 0.027446 10.5004 0.0122075ZM15.4071 4.40302C16.1177 4.10274 16.8021 3.74491 17.4554 3.33466C16.2912 2.03344 14.7913 1.03885 13.0919 0.48696C14.0499 1.6742 14.8337 2.99045 15.4071 4.40302ZM13.0919 19.5129C14.7913 18.961 16.2912 17.9664 17.4554 16.6652C16.8021 16.2549 16.1177 15.8971 15.4071 15.5968C14.8337 17.0094 14.0499 18.3256 13.0919 19.5129ZM4.59351 4.40302C5.16686 2.99049 5.95063 1.67428 6.90854 0.487076C5.20923 1.039 3.70949 2.03359 2.54538 3.33476C3.19858 3.74497 3.88291 4.10277 4.59351 4.40302ZM6.90855 19.5128C5.20924 18.9608 3.70948 17.9663 2.54537 16.6651C3.19857 16.2549 3.88291 15.8971 4.5935 15.5968C5.16687 17.0093 5.95064 18.3256 6.90855 19.5128Z" fill="#000"/>
</svg>